<svg width="152" height="32" viewBox="0 0 152 32" fill="none" xmlns="http://www.w3.org/2000/svg">
<rect x="62" y="2" width="28" height="28" rx="4" fill="black"/>
<path d="M72.6186 9.69215C72.6186 10.6267 71.8085 11.3843 70.8093 11.3843C69.81 11.3843 69 10.6267 69 9.69215C69 8.7576 69.81 8 70.8093 8C71.8085 8 72.6186 8.7576 72.6186 9.69215Z" fill="white"/>
<path d="M69.2474 12.6281H72.3402V22H69.2474V12.6281Z" fill="white"/>
<path d="M77.3196 12.6281H74.2268V22H77.3196C77.3196 22 77.3196 19.0496 77.3196 17.2049C77.3196 16.0976 77.6977 14.9855 79.2062 14.9855C80.911 14.9855 80.9008 16.4345 80.8928 17.5571C80.8824 19.0244 80.9072 20.5219 80.9072 22H84V17.0537C83.9738 13.8954 83.1508 12.4401 80.4433 12.4401C78.8354 12.4401 77.8387 13.1701 77.3196 13.8305V12.6281Z" fill="white"/>
<path d="M131.789 28C128.554 28 125.538 27.0591 123 25.4356C125.155 25.5751 128.958 25.2411 131.324 22.9848C127.765 22.8215 126.16 20.0923 125.951 18.926C126.253 19.0426 127.695 19.1826 128.509 18.856C124.416 17.8296 123.788 14.2373 123.927 13.141C124.695 13.6775 125.997 13.8641 126.509 13.8174C122.695 11.0882 124.067 6.98276 124.742 6.09635C127.479 9.88867 131.581 12.0186 136.656 12.137C136.561 11.7174 136.51 11.2804 136.51 10.8316C136.51 7.61092 139.113 5 142.325 5C144.003 5 145.514 5.71275 146.576 6.85284C147.697 6.59011 149.384 5.97507 150.209 5.4432C149.793 6.93611 148.499 8.18149 147.716 8.64308C147.71 8.62731 147.722 8.65878 147.716 8.64308C148.404 8.53904 150.265 8.18137 151 7.68256C150.636 8.52125 149.264 9.91573 148.138 10.6964C148.347 19.9381 141.276 28 131.789 28Z" fill="black"/>
<rect x="2" y="2" width="28" height="28" rx="6" fill="black"/>
<rect x="2" y="2" width="28" height="28" rx="6" fill="black"/>
<rect x="2" y="2" width="28" height="28" rx="6" fill="black"/>
<path d="M23 10.5C23 11.3284 22.3284 12 21.5 12C20.6716 12 20 11.3284 20 10.5C20 9.67157 20.6716 9 21.5 9C22.3284 9 23 9.67157 23 10.5Z" fill="white"/>
<path fill-rule="evenodd" clip-rule="evenodd" d="M16 21C18.7614 21 21 18.7614 21 16C21 13.2386 18.7614 11 16 11C13.2386 11 11 13.2386 11 16C11 18.7614 13.2386 21 16 21ZM16 19C17.6569 19 19 17.6569 19 16C19 14.3431 17.6569 13 16 13C14.3431 13 13 14.3431 13 16C13 17.6569 14.3431 19 16 19Z" fill="white"/>
<path fill-rule="evenodd" clip-rule="evenodd" d="M6 15.6C6 12.2397 6 10.5595 6.65396 9.27606C7.2292 8.14708 8.14708 7.2292 9.27606 6.65396C10.5595 6 12.2397 6 15.6 6H16.4C19.7603 6 21.4405 6 22.7239 6.65396C23.8529 7.2292 24.7708 8.14708 25.346 9.27606C26 10.5595 26 12.2397 26 15.6V16.4C26 19.7603 26 21.4405 25.346 22.7239C24.7708 23.8529 23.8529 24.7708 22.7239 25.346C21.4405 26 19.7603 26 16.4 26H15.6C12.2397 26 10.5595 26 9.27606 25.346C8.14708 24.7708 7.2292 23.8529 6.65396 22.7239C6 21.4405 6 19.7603 6 16.4V15.6ZM15.6 8H16.4C18.1132 8 19.2777 8.00156 20.1779 8.0751C21.0548 8.14674 21.5032 8.27659 21.816 8.43597C22.5686 8.81947 23.1805 9.43139 23.564 10.184C23.7234 10.4968 23.8533 10.9452 23.9249 11.8221C23.9984 12.7223 24 13.8868 24 15.6V16.4C24 18.1132 23.9984 19.2777 23.9249 20.1779C23.8533 21.0548 23.7234 21.5032 23.564 21.816C23.1805 22.5686 22.5686 23.1805 21.816 23.564C21.5032 23.7234 21.0548 23.8533 20.1779 23.9249C19.2777 23.9984 18.1132 24 16.4 24H15.6C13.8868 24 12.7223 23.9984 11.8221 23.9249C10.9452 23.8533 10.4968 23.7234 10.184 23.564C9.43139 23.1805 8.81947 22.5686 8.43597 21.816C8.27659 21.5032 8.14674 21.0548 8.0751 20.1779C8.00156 19.2777 8 18.1132 8 16.4V15.6C8 13.8868 8.00156 12.7223 8.0751 11.8221C8.14674 10.9452 8.27659 10.4968 8.43597 10.184C8.81947 9.43139 9.43139 8.81947 10.184 8.43597C10.4968 8.27659 10.9452 8.14674 11.8221 8.0751C12.7223 8.00156 13.8868 8 15.6 8Z" fill="white"/>
</svg>
